<svg xmlns="http://www.w3.org/2000/svg" width="24" height="24" viewBox="0 0 24 24"><path d="M24 4.557c-.883.392-1.832.656-2.828.775 1.017-.609 1.798-1.574 2.165-2.724-.951.564-2.005.974-3.127 1.195-.897-.957-2.178-1.555-3.594-1.555-3.179 0-5.515 2.966-4.797 6.045-4.091-.205-7.719-2.165-10.148-5.144-1.29 2.213-.669 5.108 1.523 6.574-.806-.026-1.566-.247-2.229-.616v.064c0 2.299 1.634 4.22 3.808 4.661-.709.192-1.46 0-2.178-.423.945.199 1.81.518 2.659.823-.742-.501-1.465-1.174-2.125-1.954.659.105 1.329.162 2.005.162.779 0 1.53-.098 2.249-.292.823.997 1.903 1.656 3.179 1.656 3.594 0 5.192-2.618 5.192-4.615v-.064c.883-.633 1.632-1.418 2.229-2.317-.883.392-1.832.656-2.828.775z"/></svg>